<svg version="1.1" id="Layer_1" xmlns="http://www.w3.org/2000/svg" xmlns:xlink="http://www.w3.org/1999/xlink" x="0px" y="0px"
	 width="100%" viewBox="0 0 661 377" enable-background="new 0 0 661 377" xml:space="preserve">
<path fill="#000000" opacity="1.000000" stroke="none" 
	d="
M385.000000,378.000000 
	C256.697449,378.000000 128.894867,378.000000 1.046151,378.000000 
	C1.046151,252.394363 1.046151,126.788704 1.046151,1.091520 
	C221.219269,1.091520 441.438568,1.091520 661.828979,1.091520 
	C661.828979,126.666481 661.828979,252.333221 661.828979,378.000000 
	C569.788635,378.000000 477.644318,378.000000 385.000000,378.000000 
M334.994507,141.994629 
	C334.994507,141.994629 334.993042,141.926743 334.451874,142.056992 
	C334.275757,142.368073 334.099640,142.679153 333.991241,142.991333 
	C333.991241,142.991333 333.985382,142.923813 333.433075,143.034424 
	C333.262421,143.351013 333.091766,143.667603 332.985474,143.976334 
	C332.985474,143.976334 332.960358,143.916550 332.255249,143.975693 
	C331.140015,145.305038 330.024750,146.634384 328.973816,147.974869 
	C328.973816,147.974869 328.963959,147.910339 328.266907,147.980484 
	C327.161438,149.288254 326.055939,150.596024 324.326416,152.172913 
	C318.589905,156.097458 313.193756,160.714844 307.019440,163.748367 
	C301.051880,166.680313 294.390594,168.623154 287.820068,169.727829 
	C284.503387,170.285477 280.698883,168.076065 277.140045,167.032074 
	C268.647736,164.540802 262.871948,158.454849 259.271484,151.008270 
	C256.034607,144.313629 254.843445,136.803528 256.922394,129.089157 
	C259.728546,118.676483 265.609436,110.455086 275.310883,106.234718 
	C284.580322,102.202286 294.614136,102.116127 304.073212,106.633446 
	C308.720734,108.852928 313.342041,111.068626 315.492279,116.629662 
	C316.865112,120.180183 319.562866,123.275154 321.945251,126.359093 
	C323.592712,128.491669 325.195435,128.761688 327.460419,126.247429 
	C331.286163,122.000763 336.010040,118.566330 339.869232,114.345131 
	C341.341644,112.734604 342.654358,109.430351 341.975250,107.715622 
	C340.457214,103.882378 337.975891,100.282555 335.293152,97.085999 
	C326.780396,86.942680 315.137909,80.964661 303.012054,77.350151 
	C290.598022,73.649727 277.515015,74.112816 265.137512,81.979561 
	C262.388611,83.302780 259.639740,84.626007 256.966949,85.942848 
	C256.966949,85.942848 256.959595,85.866844 256.226166,85.957558 
	C252.908417,87.636505 248.829208,88.411713 247.979218,93.004456 
	C247.979218,93.004456 247.944794,92.937271 247.289612,93.167435 
	C244.818222,96.100960 242.346832,99.034477 239.956879,101.964920 
	C239.956879,101.964920 239.952942,101.883545 239.322556,102.186073 
	C237.192947,105.593956 234.634109,108.810478 233.013596,112.445328 
	C227.983688,123.727539 226.500092,135.603424 229.095657,147.698044 
	C231.029449,156.708969 233.810715,165.510147 240.960632,172.018555 
	C240.960632,172.018555 240.901169,172.047943 240.981857,172.765854 
	C243.980621,175.867691 246.979401,178.969543 249.987427,182.009628 
	C249.987427,182.009628 249.927170,182.026031 250.016296,182.741974 
	C251.344070,183.510223 252.671829,184.278473 254.007812,184.992126 
	C254.007812,184.992126 253.955093,185.008560 254.204224,185.625351 
	C255.134033,186.107208 256.063843,186.589066 256.996124,187.007797 
	C256.996124,187.007797 256.935028,187.023956 257.172821,187.643982 
	C258.113220,188.109055 259.053619,188.574127 260.005310,188.995407 
	C260.005310,188.995407 259.965179,189.016251 260.246948,189.666397 
	C262.167542,190.460052 264.088165,191.253708 266.010742,191.986420 
	C266.010742,191.986420 265.951355,192.000198 266.272003,192.638687 
	C268.844635,193.680573 271.417297,194.722458 274.859772,195.931702 
	C276.800079,196.197876 278.740875,196.693283 280.680573,196.688766 
	C287.437592,196.673050 294.524353,197.728180 300.866943,196.044678 
	C308.701660,193.965118 316.378784,190.289917 323.280914,185.960190 
	C331.359375,180.892563 338.607086,174.473053 346.061768,168.450119 
	C349.829346,165.406158 353.258789,161.943649 356.950287,158.570602 
	C368.688507,169.642181 379.779297,180.185471 390.980408,190.610275 
	C393.780548,193.216354 396.935699,195.441010 400.217224,198.706146 
	C409.169098,198.736282 418.120972,198.766418 427.917145,198.876694 
	C428.747986,198.897720 429.623505,199.096802 430.400177,198.901886 
	C431.917114,198.521149 433.378754,197.920227 434.863312,197.410461 
	C433.999359,195.960068 433.324066,194.341965 432.222382,193.102982 
	C430.929626,191.649124 429.189911,190.604233 427.776123,189.244614 
	C419.304810,181.097870 410.834076,172.949844 402.436188,164.727585 
	C394.444916,156.903397 386.588348,148.941315 378.575317,141.139740 
	C376.035767,138.667221 376.696136,136.275253 378.594849,134.199615 
	C388.172882,123.728958 397.889923,113.385551 407.546417,102.986588 
	C414.942322,95.022102 422.335388,87.054886 429.698822,79.060440 
	C432.218506,76.324844 432.175629,76.285355 428.758728,73.338882 
	C418.790344,73.295555 408.821991,73.252220 398.211914,73.354897 
	C394.734100,77.134102 391.289856,80.944908 387.772217,84.686653 
	C376.648010,96.519417 365.481445,108.312439 354.381073,120.167450 
	C353.403320,121.211685 352.788849,122.596069 351.474396,124.044060 
	C351.291229,124.365875 351.108063,124.687691 350.988342,124.976967 
	C350.988342,124.976967 350.955536,124.913651 350.346069,125.094826 
	C349.529327,126.047417 348.712555,127.000015 347.969147,127.993774 
	C347.969147,127.993774 348.010132,127.920334 347.449097,128.039703 
	C347.271515,128.361069 347.093933,128.682434 346.988708,128.944855 
	C346.988708,128.944855 346.929596,128.872681 346.314209,129.086304 
	C345.183655,130.375778 344.053101,131.665253 342.985474,132.984787 
	C342.985474,132.984787 342.952850,132.923141 342.321777,133.124496 
	C341.851959,134.080627 341.382141,135.036774 340.999115,136.004944 
	C340.999115,136.004944 341.011322,135.918167 340.459473,136.048752 
	C340.280792,136.365417 340.102142,136.682083 339.998840,136.995804 
	C339.998840,136.995804 339.995728,136.920441 339.445618,137.048004 
	C339.270905,137.364853 339.096222,137.681717 338.989502,137.980255 
	C338.989502,137.980255 338.970001,137.912582 338.259033,137.989731 
	C337.480408,138.984161 336.701782,139.978577 335.985474,140.993820 
	C335.985474,140.993820 335.994263,140.928711 335.446442,141.047333 
	C335.273224,141.361511 335.100006,141.675690 334.994507,141.994629 
M269.000031,240.999786 
	C269.000031,240.999786 268.975067,240.948303 268.465515,241.259323 
	C268.405304,241.829742 268.345093,242.400177 268.139404,243.490494 
	C268.099579,243.666000 268.059784,243.841507 267.387451,244.405502 
	C262.854767,253.436371 265.269470,262.520416 267.260254,271.579651 
	C267.316467,271.835419 268.396332,271.866211 269.000000,272.000000 
	C269.000000,272.000000 268.998077,272.001038 269.030792,272.697357 
	C269.666016,273.813843 270.301208,274.930359 271.000000,276.001221 
	C271.000000,276.001221 270.936707,276.049896 270.973267,276.752380 
	C275.206390,282.820099 280.552155,287.317139 288.528107,288.885834 
	C288.697968,288.858337 288.867798,288.830872 289.709747,289.202057 
	C295.843781,291.983490 301.945923,291.485840 308.504913,288.944031 
	C308.504913,288.944031 308.966003,288.801636 309.697021,288.871948 
	C317.794586,285.783173 324.906158,281.493561 328.355896,272.998169 
	C328.786865,271.936920 328.406982,270.546417 328.402802,269.308502 
	C327.260529,269.528992 326.118256,269.749481 324.333832,270.037140 
	C323.904388,270.016876 323.474976,269.996613 322.871063,269.559845 
	C322.565430,269.698059 322.259766,269.836243 321.469025,270.076233 
	C321.469025,270.076233 320.987823,270.195099 320.111389,270.044800 
	C317.397858,269.733307 314.676147,269.136841 311.973724,269.214203 
	C310.277679,269.262726 308.610565,270.323212 306.982880,270.976898 
	C306.982880,270.976898 306.973175,270.907074 306.171539,270.907288 
	C302.467834,271.685455 298.764160,272.463593 294.575775,273.104004 
	C294.411865,273.067322 294.247986,273.030640 293.861786,272.412994 
	C292.915039,272.245422 291.968262,272.077850 290.376099,271.661896 
	C288.422089,269.575592 286.468048,267.489319 284.221497,265.090698 
	C286.904541,265.090698 288.430450,265.166412 289.946655,265.077271 
	C295.710602,264.738403 301.471527,264.047699 307.233459,264.048859 
	C314.618591,264.050354 322.002472,264.678680 329.390381,264.778717 
	C330.197693,264.789642 331.624695,263.178558 331.754303,262.187653 
	C332.902710,253.409592 331.876495,244.416397 326.439789,237.697845 
	C318.821167,228.282883 308.547516,222.570923 295.626526,223.086945 
	C287.362701,223.417007 271.572449,230.798477 269.482513,240.098434 
	C269.302765,240.396545 269.122986,240.694672 269.000031,240.999786 
M446.193085,286.402039 
	C446.373199,286.695251 446.633545,286.817322 447.634888,287.111786 
	C454.949554,290.557831 462.321777,292.529694 470.371979,289.284515 
	C473.168457,288.157227 476.577271,284.497101 479.293365,289.782806 
	C479.479797,290.145630 480.863678,289.917114 481.690948,289.922180 
	C484.177307,289.937469 486.663849,289.935242 489.150299,289.934387 
	C495.991577,289.932037 495.991577,289.930939 495.882721,282.063110 
	C495.860413,272.375031 495.838135,262.686951 495.889923,252.222733 
	C494.870026,248.802368 493.850159,245.382004 492.835388,241.496628 
	C492.680756,241.187744 492.430817,241.027954 492.080109,240.914444 
	C492.080109,240.914444 491.977234,240.918045 491.954102,240.255081 
	C491.335632,239.798141 490.717163,239.341202 490.034088,238.900818 
	C490.034088,238.900818 490.057281,238.963303 489.912201,238.440842 
	C489.612671,238.256454 489.313141,238.072083 488.886719,237.442627 
	C488.886719,237.442627 488.750305,237.000351 488.889191,236.401779 
	C488.567688,236.006378 488.246155,235.610977 487.487213,235.117050 
	C487.487213,235.117050 487.054260,235.000412 486.812225,234.366425 
	C485.180084,233.011337 483.547943,231.656250 481.491028,230.133224 
	C481.491028,230.133224 481.054840,229.997833 480.878876,229.499527 
	C480.588257,229.316269 480.297607,229.133011 479.998688,229.001770 
	C479.998688,229.001770 480.042969,228.973175 479.721588,228.379974 
	C478.474548,227.932281 477.227478,227.484604 475.662201,226.535782 
	C475.101013,226.358566 474.539856,226.181351 473.807831,225.579956 
	C473.609558,225.286652 473.340027,225.187973 472.357178,225.142258 
	C471.921265,225.096329 471.485382,225.050400 470.717743,224.466782 
	C470.112091,224.409805 469.506409,224.352829 468.322357,224.170425 
	C467.935028,224.097107 467.547668,224.023773 466.672150,223.224136 
	C462.101318,223.825516 457.530487,224.426895 452.339111,225.098053 
	C451.924225,225.132095 451.509338,225.166138 450.363342,225.045059 
	C447.273438,227.050735 444.183563,229.056412 441.029297,231.043594 
	C441.029297,231.043594 441.043793,231.108963 440.575989,231.242493 
	C440.283081,231.423141 440.097717,231.681091 439.417236,232.271683 
	C438.608093,233.263077 437.798920,234.254471 436.585632,235.279877 
	C436.303009,235.444992 436.221649,235.679855 436.178833,236.499680 
	C436.126587,236.672028 436.074341,236.844360 435.538391,237.173584 
	C435.373444,237.457520 435.208496,237.741455 434.613739,238.211777 
	C434.345367,238.380188 434.118958,238.593170 433.357330,239.040924 
	C433.267670,239.407028 433.178040,239.773117 433.044403,240.492966 
	C433.044403,240.492966 432.978638,240.843338 432.400238,241.079132 
	C431.948364,242.400879 431.496490,243.722626 431.062775,245.471100 
	C431.062775,245.471100 430.999084,245.893433 430.317596,246.316132 
	C430.198639,252.559586 430.079712,258.803040 430.043793,265.686615 
	C430.099365,266.112915 430.154938,266.539215 430.073273,267.692627 
	C431.041718,269.517548 432.010162,271.342438 433.038757,273.520081 
	C433.038757,273.520081 433.113190,273.870056 433.062988,274.436829 
	C433.357178,274.639587 433.651398,274.842316 433.885559,275.053375 
	C433.885559,275.053375 433.902130,275.111694 433.880676,275.785736 
	C434.916992,276.866425 435.953308,277.947113 437.008209,278.993958 
	C437.008209,278.993958 436.970032,278.999542 437.126038,279.509308 
	C437.417114,279.697968 437.708221,279.886658 438.219391,280.522461 
	C438.448853,280.786469 438.737335,280.938629 439.302368,281.643890 
	C440.846527,282.788116 442.390686,283.932373 443.951691,285.062592 
	C443.951691,285.062592 443.951385,285.060913 444.269318,285.582184 
	C444.851898,285.712128 445.434448,285.842102 446.000946,286.001923 
	C446.000946,286.001923 446.027039,285.978973 446.193085,286.402039 
M551.929138,283.558502 
	C552.030945,283.860504 552.240173,284.027649 553.111328,284.419525 
	C554.097839,284.873169 555.084412,285.326843 556.694641,286.143341 
	C560.214844,287.481140 563.655640,289.115356 567.274536,290.084839 
	C572.275696,291.424652 573.974304,289.945435 573.954468,285.009613 
	C573.945801,282.850891 573.828735,280.682190 573.990967,278.535400 
	C574.317810,274.210175 572.598328,271.851532 568.199768,270.877167 
	C566.455139,270.490723 563.940674,268.576294 563.733276,267.085327 
	C562.590759,258.873779 562.053467,250.578049 561.371155,243.005707 
	C566.481567,241.846603 571.651855,242.159576 573.235535,239.927643 
	C575.092407,237.310760 574.215942,232.442062 573.838684,228.617798 
	C573.067139,220.796494 565.950684,225.896301 561.746399,222.852509 
	C561.746399,215.373642 561.746399,207.340240 561.746399,199.068420 
	C556.849854,199.068420 552.685364,199.262894 548.547546,199.013382 
	C544.459656,198.766891 542.840454,200.268173 542.982971,204.447144 
	C543.204224,210.930420 542.994629,217.428406 542.101685,224.038300 
	C533.903748,221.856308 534.153198,228.565643 532.797668,234.257660 
	C531.970276,231.829178 531.408264,230.467331 531.043091,229.054626 
	C529.875183,224.536758 525.612976,222.540100 521.222839,224.495392 
	C519.904968,225.082352 518.523499,225.536621 517.237244,226.183029 
	C511.541687,229.045227 506.950195,232.976761 504.550995,239.119568 
	C499.821777,251.228149 501.002472,263.894714 501.129456,276.414154 
	C501.291565,292.396729 498.165771,289.634674 515.348022,289.931763 
	C515.680542,289.937531 516.163635,290.067596 516.321960,289.899689 
	C517.470154,288.682465 518.552795,287.403473 519.958374,285.212769 
	C519.883667,274.487854 519.809021,263.762939 519.768066,252.228348 
	C521.216125,243.982224 523.921448,241.721664 532.023193,241.898605 
	C535.995911,241.985367 539.970398,241.989304 544.022583,242.531784 
	C544.080078,242.690765 544.137573,242.849762 543.800293,243.761154 
	C542.304565,257.273346 542.246948,270.519440 551.057434,282.601257 
	C551.249451,282.898041 551.521851,283.033661 551.862122,283.113770 
	C551.862122,283.113770 551.967407,283.129089 551.929138,283.558502 
M79.971123,273.001892 
	C79.971123,273.001892 79.925568,273.045380 79.944084,273.678955 
	C80.428871,274.282196 80.913658,274.885437 81.423485,275.616821 
	C81.423485,275.616821 81.553452,275.604553 81.892906,276.124878 
	C83.578964,277.433319 85.265015,278.741730 87.000732,280.033356 
	C87.000732,280.033356 86.950569,280.027130 87.062302,280.559265 
	C87.367798,280.725647 87.673286,280.891998 87.980820,280.998474 
	C87.980820,280.998474 87.952271,281.051605 88.257126,281.677032 
	C92.491936,286.297821 98.329414,287.388641 104.502235,288.903839 
	C104.502235,288.903839 104.995064,288.822418 105.701866,289.211670 
	C111.200882,290.895142 116.684753,291.217804 122.554382,288.973083 
	C122.554382,288.973083 122.971504,288.989532 123.133652,289.398285 
	C123.427895,289.269836 123.722137,289.141418 123.999138,288.999298 
	C123.999138,288.999298 124.009712,289.018860 124.790703,288.997040 
	C129.199371,287.011841 133.608063,285.026642 138.002991,283.016724 
	C138.002991,283.016724 138.026520,283.026062 138.540878,282.903473 
	C138.718094,282.611298 138.895325,282.319122 139.018723,282.060211 
	C139.018723,282.060211 139.070221,282.096985 139.751587,282.061890 
	C141.182907,280.725189 142.614212,279.388519 144.000000,278.007935 
	C144.000000,278.007935 144.045715,278.057983 144.739212,278.027313 
	C146.087204,276.305878 147.435196,274.584442 149.169891,272.276093 
	C150.889923,269.180481 152.771271,266.154175 154.162079,262.917114 
	C154.379333,262.411469 152.464935,260.214325 151.360870,260.060822 
	C147.940384,259.585266 144.420868,259.492126 140.969162,259.711945 
	C139.276138,259.819763 136.694214,260.509674 136.154358,261.687622 
	C133.716217,267.007690 128.892120,268.893494 124.265907,271.434540 
	C114.033554,277.054901 101.078278,272.396393 93.975311,264.618988 
	C86.707825,256.661407 87.362984,237.171478 97.463303,228.516922 
	C108.845459,218.764053 127.949112,221.706711 134.980682,232.643219 
	C136.222519,234.574707 138.900101,236.580948 141.038467,236.725876 
	C145.209213,237.008530 149.467499,235.999359 154.119736,235.476807 
	C151.162476,220.926575 141.340042,213.040161 128.715454,208.106583 
	C120.243980,204.796021 111.301392,205.664902 102.577126,207.383408 
	C94.635849,208.947662 87.936691,213.024063 82.481789,218.988693 
	C73.365921,228.956345 71.269852,241.042694 72.076981,254.767776 
	C73.718102,259.176300 75.359222,263.584808 76.998779,268.001221 
	C76.998779,268.001221 77.007370,268.000397 77.004166,268.743408 
	C77.665596,269.536163 78.327019,270.328918 79.103584,271.588318 
	C79.103584,271.588318 79.234818,272.050751 79.230850,272.519928 
	C79.394211,272.813263 79.640114,272.994904 79.971123,273.001892 
M390.448273,242.003784 
	C390.277527,242.043884 390.106750,242.083984 389.571289,242.016891 
	C389.571289,242.016891 389.192993,241.979858 389.025421,241.052307 
	C388.973480,227.958878 388.921539,214.865448 388.968323,201.122559 
	C388.281464,200.502625 387.594604,199.882706 386.182983,199.151428 
	C385.452026,199.179611 384.721069,199.207794 383.071564,199.082443 
	C380.406555,199.059891 377.725433,199.214188 375.080444,198.972519 
	C371.300995,198.627182 369.774384,199.789612 369.892883,203.921524 
	C370.217560,215.240356 370.098206,226.571930 370.011108,238.852798 
	C370.002411,253.890335 369.959229,268.928070 370.035065,283.965179 
	C370.043182,285.578491 370.744171,287.188354 371.826141,289.259705 
	C375.922882,289.508698 380.030701,289.643860 384.113190,290.039703 
	C387.967255,290.413422 389.074707,288.512482 388.996124,285.055450 
	C388.886597,280.234467 388.962097,275.408997 388.977142,270.585510 
	C388.991425,266.006592 391.385376,263.613770 396.207306,263.613068 
	C396.792267,264.078308 397.377258,264.543549 398.065155,265.711945 
	C401.005035,269.872681 403.944885,274.033447 407.242706,278.770142 
	C408.122070,280.146393 408.835663,281.672485 409.915802,282.867188 
	C412.068207,285.247925 414.157257,288.957581 416.746765,289.411285 
	C422.436340,290.408203 428.421051,289.720490 434.933258,289.720490 
	C433.975159,287.723419 433.620087,286.608459 432.976013,285.697906 
	C425.399170,274.985962 417.653473,264.389343 410.317810,253.515717 
	C409.320496,252.037445 409.432770,248.464172 410.548950,247.146744 
	C414.698669,242.248825 419.535889,237.939697 424.005951,233.304367 
	C426.374054,230.848755 428.517639,228.176620 431.577454,224.667801 
	C423.392731,224.667801 416.661316,224.399567 409.975830,224.835541 
	C408.036865,224.961975 406.098694,226.947037 404.388275,228.356781 
	C400.555176,231.516068 396.865356,234.849182 392.450714,238.260223 
	C391.951416,239.497330 391.452118,240.734436 390.997009,242.001831 
	C390.997009,242.001831 390.972168,241.954498 390.448273,242.003784 
M225.869156,251.699829 
	C225.599823,251.434891 225.330475,251.169952 224.994736,250.298218 
	C224.936096,249.896393 224.877457,249.494553 224.910645,248.404510 
	C224.874969,247.944748 224.839294,247.485001 224.899597,246.335205 
	C224.284637,244.903976 223.669693,243.472733 223.953491,241.957504 
	C225.116898,241.920990 226.280075,241.865173 227.443756,241.851151 
	C234.006165,241.772003 233.985626,241.779205 234.018158,248.535782 
	C234.047760,254.685913 234.137573,260.835785 234.092300,267.779846 
	C234.761490,271.938873 235.010208,276.283661 238.999390,278.999969 
	C238.999390,278.999969 239.040710,278.971497 239.095016,279.671326 
	C242.364395,285.477142 247.909012,287.676056 254.000549,289.003723 
	C254.000549,289.003723 253.952713,289.038605 254.138428,289.438080 
	C254.432053,289.292511 254.725693,289.146912 255.503387,288.960327 
	C255.503387,288.960327 255.985840,289.017212 256.475555,289.656128 
	C258.504425,289.419189 262.285126,289.263885 262.300537,288.933136 
	C262.548584,283.610565 262.382416,278.261719 262.059418,272.934021 
	C262.036011,272.547943 260.080566,272.279022 258.995758,271.996124 
	C258.995758,271.996124 259.038605,271.972961 258.867828,271.553802 
	C258.561310,271.696045 258.254791,271.838318 257.282867,271.767090 
	C253.055817,269.860474 252.348923,265.985962 251.964828,261.080322 
	C251.964828,254.828644 251.964828,248.576965 251.964828,242.305603 
	C255.955124,241.968231 260.128815,242.807205 261.874023,241.125702 
	C263.550842,239.510086 262.912842,235.285904 262.940460,232.204803 
	C263.011627,224.266388 262.933655,224.274384 254.855194,224.007034 
	C254.070282,223.981079 253.291748,223.762360 251.904953,223.533020 
	C251.904953,215.468094 251.904953,207.580429 251.904953,199.017792 
	C246.478149,199.017792 241.690475,199.158371 236.916000,198.968002 
	C233.772308,198.842651 232.879471,200.208755 232.953461,203.107727 
	C233.123215,209.758102 233.103348,216.413315 232.635544,223.722610 
	C231.175095,223.849899 229.713165,224.097870 228.254471,224.080231 
	C224.838043,224.038879 222.726990,224.235413 223.795746,229.028732 
	C224.466568,232.037262 222.651047,235.600143 221.229034,238.948822 
	C219.657288,237.647568 218.019562,236.416992 216.530563,235.027100 
	C214.677277,233.297180 213.121811,231.209595 211.132965,229.670197 
	C202.497513,222.986206 192.639374,221.826736 182.369370,224.309235 
	C174.066101,226.316299 167.540009,232.061646 163.231491,238.682617 
	C158.919678,245.308716 156.880905,253.554489 158.625824,262.079559 
	C160.979507,273.578827 167.080353,283.477417 179.154480,288.242340 
	C188.875458,292.078674 197.854599,290.907959 207.177002,287.720276 
	C207.472183,288.295288 207.776627,289.375854 208.061188,289.370636 
	C213.715454,289.267212 219.367432,289.038269 225.707489,288.360199 
	C225.752274,276.336761 225.797043,264.313324 225.869156,251.699829 
M336.242462,287.760803 
	C339.546722,288.506348 342.831879,289.772278 346.159058,289.894623 
	C354.369629,290.196564 354.377380,289.985687 353.879517,280.976288 
	C353.922363,271.645081 353.965210,262.313873 354.620239,252.582382 
	C355.964447,247.365036 357.256775,242.169205 364.127655,241.632706 
	C364.801819,241.580063 365.845001,239.965088 365.878265,239.044983 
	C366.053894,234.186935 365.960602,229.319168 365.960602,224.516327 
	C358.469055,223.083878 352.671051,225.215927 347.282166,229.159454 
	C337.286285,236.474335 336.658478,247.084747 337.029755,258.716370 
	C337.028564,259.165436 337.027405,259.614532 336.207245,260.380615 
	C336.222595,269.251465 336.237915,278.122314 336.242462,287.760803 
z"/>
<path fill="#DFA01E" opacity="1.000000" stroke="none" 
	d="
M352.005615,123.822449 
	C352.788849,122.596069 353.403320,121.211685 354.381073,120.167450 
	C365.481445,108.312439 376.648010,96.519417 387.772217,84.686653 
	C391.289856,80.944908 394.734100,77.134102 398.903625,73.501434 
	C409.483765,73.800659 419.372192,73.953346 429.260651,74.106033 
	C432.175629,76.285355 432.218506,76.324844 429.698822,79.060440 
	C422.335388,87.054886 414.942322,95.022102 407.546417,102.986588 
	C397.889923,113.385551 388.172882,123.728958 378.594849,134.199615 
	C376.696136,136.275253 376.035767,138.667221 378.575317,141.139740 
	C386.588348,148.941315 394.444916,156.903397 402.436188,164.727585 
	C410.834076,172.949844 419.304810,181.097870 427.776123,189.244614 
	C429.189911,190.604233 430.929626,191.649124 432.222382,193.102982 
	C433.324066,194.341965 433.999359,195.960068 434.863312,197.410461 
	C433.378754,197.920227 431.917114,198.521149 430.400177,198.901886 
	C429.623505,199.096802 428.747986,198.897720 427.219666,198.503998 
	C417.657379,198.034531 408.792511,197.937759 399.927673,197.840973 
	C396.935699,195.441010 393.780548,193.216354 390.980408,190.610275 
	C379.779297,180.185471 368.688507,169.642181 356.950287,158.570602 
	C353.258789,161.943649 349.829346,165.406158 346.061768,168.450119 
	C338.607086,174.473053 331.359375,180.892563 323.280914,185.960190 
	C316.378784,190.289917 308.701660,193.965118 300.866943,196.044678 
	C294.524353,197.728180 287.437592,196.673050 280.680573,196.688766 
	C278.740875,196.693283 276.800079,196.197876 274.314606,195.527466 
	C271.163422,194.082214 268.557373,193.041214 265.951355,192.000198 
	C265.951355,192.000198 266.010742,191.986420 265.872711,191.690445 
	C263.811523,190.601730 261.888336,189.808990 259.965179,189.016251 
	C259.965179,189.016251 260.005310,188.995407 259.894348,188.698441 
	C258.833954,187.942291 257.884491,187.483124 256.935028,187.023956 
	C256.935028,187.023956 256.996124,187.007797 256.874329,186.729446 
	C255.820053,185.970245 254.887573,185.489395 253.955093,185.008560 
	C253.955093,185.008560 254.007812,184.992126 253.890930,184.702759 
	C252.491760,183.617599 251.209473,182.821808 249.927170,182.026031 
	C249.927170,182.026031 249.987427,182.009628 249.923294,181.696426 
	C246.873169,178.271469 243.887161,175.159698 240.901169,172.047943 
	C240.901169,172.047943 240.960632,172.018555 240.963776,171.679016 
	C237.160294,162.630981 231.863220,154.663177 230.875015,144.665878 
	C229.994675,135.759644 229.641205,127.155746 232.890762,118.738075 
	C235.083618,113.057671 237.587952,107.497505 239.952942,101.883545 
	C239.952942,101.883545 239.956879,101.964920 240.262146,101.905861 
	C243.026535,98.876961 245.485657,95.907112 247.944794,92.937271 
	C247.944794,92.937271 247.979218,93.004456 248.304169,92.953011 
	C251.405945,90.556656 254.182770,88.211754 256.959595,85.866844 
	C256.959595,85.866844 256.966949,85.942848 257.312103,85.940048 
	C260.414917,84.591087 263.172577,83.244926 265.930237,81.898773 
	C277.515015,74.112816 290.598022,73.649727 303.012054,77.350151 
	C315.137909,80.964661 326.780396,86.942680 335.293152,97.085999 
	C337.975891,100.282555 340.457214,103.882378 341.975250,107.715622 
	C342.654358,109.430351 341.341644,112.734604 339.869232,114.345131 
	C336.010040,118.566330 331.286163,122.000763 327.460419,126.247429 
	C325.195435,128.761688 323.592712,128.491669 321.945251,126.359093 
	C319.562866,123.275154 316.865112,120.180183 315.492279,116.629662 
	C313.342041,111.068626 308.720734,108.852928 304.073212,106.633446 
	C294.614136,102.116127 284.580322,102.202286 275.310883,106.234718 
	C265.609436,110.455086 259.728546,118.676483 256.922394,129.089157 
	C254.843445,136.803528 256.034607,144.313629 259.271484,151.008270 
	C262.871948,158.454849 268.647736,164.540802 277.140045,167.032074 
	C280.698883,168.076065 284.503387,170.285477 287.820068,169.727829 
	C294.390594,168.623154 301.051880,166.680313 307.019440,163.748367 
	C313.193756,160.714844 318.589905,156.097458 324.969604,151.975479 
	C326.729889,150.488815 327.846924,149.199585 328.963959,147.910339 
	C328.963959,147.910339 328.973816,147.974869 329.285400,147.929443 
	C330.718109,146.561523 331.839233,145.239029 332.960358,143.916550 
	C332.960358,143.916550 332.985474,143.976334 333.192322,143.873322 
	C333.594574,143.488159 333.789978,143.205978 333.985382,142.923813 
	C333.985382,142.923813 333.991241,142.991333 334.184601,142.867615 
	C334.582977,142.471527 334.788025,142.199127 334.993042,141.926743 
	C334.993042,141.926743 334.994507,141.994629 335.195435,141.879379 
	C335.595673,141.485657 335.794952,141.207184 335.994263,140.928711 
	C335.994263,140.928711 335.985474,140.993820 336.286865,140.927231 
	C337.382172,139.877960 338.176086,138.895279 338.970001,137.912582 
	C338.970001,137.912582 338.989502,137.980255 339.182678,137.862213 
	C339.582489,137.469574 339.789093,137.195007 339.995728,136.920441 
	C339.995728,136.920441 339.998840,136.995804 340.183929,136.862671 
	C340.583099,136.459091 340.797211,136.188629 341.011322,135.918167 
	C341.011322,135.918167 340.999115,136.004944 341.272888,135.877899 
	C342.015381,134.808289 342.484100,133.865723 342.952850,132.923141 
	C342.952850,132.923141 342.985474,132.984787 343.324158,132.976517 
	C344.751770,131.603058 345.840698,130.237869 346.929596,128.872681 
	C346.929596,128.872681 346.988708,128.944855 347.157867,128.817795 
	C347.554749,128.433929 347.782440,128.177139 348.010132,127.920341 
	C348.010132,127.920334 347.969147,127.993774 348.288177,127.960754 
	C349.389984,126.923035 350.172760,125.918350 350.955566,124.913658 
	C350.955536,124.913651 350.988342,124.976967 351.163757,124.821869 
	C351.561279,124.385330 351.783447,124.103882 352.005615,123.822449 
z"/>
<path fill="#0957A1" opacity="1.000000" stroke="none" 
	d="
M72.191635,253.989914 
	C71.269852,241.042694 73.365921,228.956345 82.481789,218.988693 
	C87.936691,213.024063 94.635849,208.947662 102.577126,207.383408 
	C111.301392,205.664902 120.243980,204.796021 128.715454,208.106583 
	C141.340042,213.040161 151.162476,220.926575 154.119736,235.476807 
	C149.467499,235.999359 145.209213,237.008530 141.038467,236.725876 
	C138.900101,236.580948 136.222519,234.574707 134.980682,232.643219 
	C127.949112,221.706711 108.845459,218.764053 97.463303,228.516922 
	C87.362984,237.171478 86.707825,256.661407 93.975311,264.618988 
	C101.078278,272.396393 114.033554,277.054901 124.265907,271.434540 
	C128.892120,268.893494 133.716217,267.007690 136.154358,261.687622 
	C136.694214,260.509674 139.276138,259.819763 140.969162,259.711945 
	C144.420868,259.492126 147.940384,259.585266 151.360870,260.060822 
	C152.464935,260.214325 154.379333,262.411469 154.162079,262.917114 
	C152.771271,266.154175 150.889923,269.180481 148.632431,272.628540 
	C146.745224,274.673340 145.395477,276.365662 144.045715,278.057983 
	C144.045715,278.057983 144.000000,278.007935 143.662689,278.040283 
	C141.906998,279.414062 140.488602,280.755524 139.070221,282.096985 
	C139.070221,282.096985 139.018723,282.060211 138.845062,282.181396 
	C138.416229,282.507904 138.201263,282.749054 138.026520,283.026062 
	C138.026520,283.026062 138.002991,283.016724 137.623291,283.037628 
	C132.832306,285.045319 128.421005,287.032104 124.009720,289.018860 
	C124.009712,289.018860 123.999138,288.999298 123.746719,288.992126 
	C123.320045,288.986450 123.145775,288.987976 122.971504,288.989532 
	C122.971504,288.989532 122.554382,288.973083 121.975723,288.801941 
	C115.929733,288.694641 110.462395,288.758545 104.995064,288.822418 
	C104.995064,288.822418 104.502235,288.903839 104.104095,288.569763 
	C98.454727,285.841003 93.203499,283.446289 87.952271,281.051605 
	C87.952271,281.051605 87.980820,280.998474 87.840027,280.826721 
	C87.486580,280.401672 87.237030,280.192413 86.950569,280.027130 
	C86.950569,280.027130 87.000732,280.033356 86.911026,279.700500 
	C85.065361,278.113281 83.309410,276.858917 81.553452,275.604553 
	C81.553452,275.604553 81.423485,275.616821 81.480057,275.223267 
	C80.999619,274.234894 80.462593,273.640137 79.925568,273.045380 
	C79.925568,273.045380 79.971123,273.001892 79.871140,272.847839 
	C79.614601,272.460938 79.435814,272.246582 79.234818,272.050751 
	C79.234818,272.050751 79.103584,271.588318 79.025826,271.014435 
	C78.301163,269.627167 77.654266,268.813782 77.007370,268.000397 
	C77.007370,268.000397 76.998779,268.001221 77.002914,267.596985 
	C75.401909,262.791779 73.796768,258.390839 72.191635,253.989914 
z"/>
<path fill="#0957A2" opacity="1.000000" stroke="none" 
	d="
M320.987823,270.195099 
	C320.987823,270.195099 321.469025,270.076233 321.984406,270.030945 
	C322.681671,269.982544 322.863586,269.979431 323.045532,269.976349 
	C323.474976,269.996613 323.904388,270.016876 324.791748,270.335388 
	C324.848999,272.602325 325.116302,275.275055 323.922485,276.407562 
	C320.346130,279.800293 316.174561,282.560577 312.288208,285.634613 
	C311.093353,286.579742 310.068634,287.739929 308.966003,288.801636 
	C308.966003,288.801636 308.504913,288.944031 307.910309,288.771973 
	C301.222992,288.667755 295.130310,288.735565 289.037598,288.803375 
	C288.867798,288.830872 288.697968,288.858337 288.136108,288.555115 
	C282.141632,284.166199 276.539185,280.108032 270.936707,276.049896 
	C270.936707,276.049896 271.000000,276.001221 270.981537,275.666412 
	C270.308075,274.221405 269.653076,273.111237 268.998077,272.001038 
	C268.998077,272.001038 269.000000,272.000000 268.991669,271.596191 
	C266.137573,262.223419 266.572144,253.138184 268.019989,244.017014 
	C268.059784,243.841507 268.099579,243.666000 268.355408,243.000763 
	C268.705994,241.990128 268.840515,241.469208 268.975067,240.948303 
	C268.975067,240.948303 269.000031,240.999786 269.175720,240.848511 
	C269.564423,240.439499 269.777435,240.181763 269.990479,239.924042 
	C271.572449,230.798477 287.362701,223.417007 295.626526,223.086945 
	C308.547516,222.570923 318.821167,228.282883 326.439789,237.697845 
	C331.876495,244.416397 332.902710,253.409592 331.754303,262.187653 
	C331.624695,263.178558 330.197693,264.789642 329.390381,264.778717 
	C322.002472,264.678680 314.618591,264.050354 307.233459,264.048859 
	C301.471527,264.047699 295.710602,264.738403 289.946655,265.077271 
	C288.430450,265.166412 286.904541,265.090698 284.221497,265.090698 
	C286.468048,267.489319 288.422089,269.575592 290.957245,271.994690 
	C292.386932,272.549652 293.235504,272.771820 294.084076,272.993958 
	C294.247986,273.030640 294.411865,273.067322 295.169312,273.332794 
	C299.845032,274.135559 303.984161,274.949799 306.973175,270.907074 
	C306.973175,270.907074 306.982880,270.976898 307.422913,270.974243 
	C312.237885,270.712769 316.612854,270.453949 320.987823,270.195099 
M290.160187,249.024048 
	C297.032593,249.024048 303.904999,249.024048 311.083008,249.024048 
	C307.232391,238.777222 289.515625,239.338943 286.595856,248.266357 
	C287.519836,248.518982 288.423676,248.766083 290.160187,249.024048 
z"/>
<path fill="#0857A2" opacity="1.000000" stroke="none" 
	d="
M206.973373,287.031708 
	C197.854599,290.907959 188.875458,292.078674 179.154480,288.242340 
	C167.080353,283.477417 160.979507,273.578827 158.625824,262.079559 
	C156.880905,253.554489 158.919678,245.308716 163.231491,238.682617 
	C167.540009,232.061646 174.066101,226.316299 182.369370,224.309235 
	C192.639374,221.826736 202.497513,222.986206 211.132965,229.670197 
	C213.121811,231.209595 214.677277,233.297180 216.530563,235.027100 
	C218.019562,236.416992 219.657288,237.647568 221.629395,239.267578 
	C222.371429,240.404709 222.713089,241.223099 223.054749,242.041489 
	C223.669693,243.472733 224.284637,244.903976 224.665558,246.814941 
	C224.155212,247.803314 223.878922,248.311920 223.602631,248.820541 
	C224.008026,248.911270 224.413422,249.001999 224.818817,249.092728 
	C224.877457,249.494553 224.936096,249.896393 225.043930,250.925537 
	C225.114532,251.768097 225.135956,251.983337 225.199661,252.213837 
	C225.241943,252.229080 225.248322,252.318756 224.989044,252.617310 
	C224.490417,254.703354 224.061630,256.489044 224.044205,258.278687 
	C223.964844,266.435455 223.882721,274.595764 224.047760,282.749786 
	C224.125504,286.591125 222.715942,288.372406 218.806961,288.013062 
	C214.865662,287.650757 210.918167,287.356018 206.973373,287.031708 
M199.312576,242.756088 
	C194.267471,240.619125 188.983414,240.273376 184.403687,243.210571 
	C178.544678,246.968201 176.004105,252.668106 176.916763,259.868744 
	C177.642609,265.595581 183.462891,271.702881 190.044266,272.991852 
	C194.437958,273.852386 202.798508,269.934540 205.003128,265.982025 
	C210.157135,256.741760 208.892014,251.130127 199.312576,242.756088 
z"/>
<path fill="#0857A3" opacity="1.000000" stroke="none" 
	d="
M495.736877,282.992737 
	C495.991577,289.930939 495.991577,289.932037 489.150299,289.934387 
	C486.663849,289.935242 484.177307,289.937469 481.690948,289.922180 
	C480.863678,289.917114 479.479797,290.145630 479.293365,289.782806 
	C476.577271,284.497101 473.168457,288.157227 470.371979,289.284515 
	C462.321777,292.529694 454.949554,290.557831 447.168732,286.783325 
	C446.508148,286.252563 446.282990,286.093933 446.027039,285.978973 
	C446.027039,285.978973 446.000946,286.001923 445.790100,285.798767 
	C445.036652,285.417389 444.494019,285.239166 443.951385,285.060913 
	C443.951385,285.060913 443.951691,285.062592 443.878845,284.727234 
	C442.232239,283.254272 440.658539,282.116608 439.084808,280.978973 
	C438.737335,280.938629 438.448853,280.786469 437.972137,280.088501 
	C437.473267,279.436218 437.221649,279.217896 436.970032,278.999542 
	C436.970032,278.999542 437.008209,278.993958 436.977905,278.656189 
	C435.932434,277.249512 434.917267,276.180603 433.902130,275.111694 
	C433.902130,275.111694 433.885559,275.053375 433.800659,274.837952 
	C433.539490,274.352020 433.338623,274.101196 433.113190,273.870056 
	C433.113190,273.870056 433.038757,273.520081 433.018005,272.968903 
	C432.068329,270.600311 431.139435,268.782898 430.210571,266.965515 
	C430.154938,266.539215 430.099365,266.112915 430.153198,265.046875 
	C430.508087,258.235870 430.753601,252.064651 430.999084,245.893433 
	C430.999084,245.893433 431.062775,245.471100 431.361298,245.094330 
	C432.099426,243.426147 432.539032,242.134735 432.978638,240.843338 
	C432.978638,240.843338 433.044403,240.492966 433.230713,240.115601 
	C433.589539,239.442413 433.762024,239.146576 433.934479,238.850723 
	C434.118958,238.593170 434.345367,238.380188 435.023438,237.983261 
	C435.676361,237.546173 435.872681,237.300156 436.022064,237.016708 
	C436.074341,236.844360 436.126587,236.672028 436.390259,236.139587 
	C436.760284,235.622879 436.889648,235.445007 436.989777,235.245880 
	C437.798920,234.254471 438.608093,233.263077 439.918335,232.027649 
	C440.670776,231.598724 440.878906,231.373840 441.043793,231.108963 
	C441.043793,231.108963 441.029297,231.043594 441.423218,231.014313 
	C444.909546,229.056747 448.001984,227.128448 451.094452,225.200165 
	C451.509338,225.166138 451.924225,225.132095 452.972961,225.201813 
	C458.124634,224.853867 462.642487,224.402161 467.160339,223.950455 
	C467.547668,224.023773 467.935028,224.097107 468.714172,224.444702 
	C469.753815,224.814133 470.401642,224.909302 471.049469,225.004456 
	C471.485382,225.050400 471.921265,225.096329 472.818939,225.362488 
	C473.486023,225.768402 473.718689,225.908875 473.978668,226.004120 
	C474.539856,226.181351 475.101013,226.358566 475.971985,227.095245 
	C477.535492,228.094208 478.789215,228.533691 480.042969,228.973175 
	C480.042969,228.973175 479.998688,229.001770 480.147675,229.178802 
	C480.514435,229.611115 480.767151,229.825119 481.054840,229.997833 
	C481.054840,229.997833 481.491028,230.133224 481.765625,230.550858 
	C483.711609,232.312469 485.382935,233.656433 487.054260,235.000397 
	C487.054260,235.000412 487.487213,235.117050 487.768311,235.406799 
	C488.283020,236.131149 488.516663,236.565750 488.750305,237.000351 
	C488.750305,237.000351 488.886719,237.442627 489.093231,237.872986 
	C489.552246,238.523315 489.804779,238.743317 490.057281,238.963303 
	C490.057281,238.963303 490.034088,238.900818 490.149902,239.178802 
	C490.836212,239.943863 491.406738,240.430954 491.977234,240.918045 
	C491.977234,240.918045 492.080109,240.914444 492.182129,241.140823 
	C492.443146,241.586533 492.625153,241.784683 492.830261,241.961655 
	C493.850159,245.382004 494.870026,248.802368 495.667603,252.979553 
	C495.542450,263.488495 495.639679,273.240631 495.736877,282.992737 
M459.277039,241.764954 
	C456.968353,242.778473 454.370239,243.406403 452.407043,244.880142 
	C447.190765,248.795898 444.881226,256.050079 447.334869,262.343201 
	C449.888702,268.893280 452.714264,272.283875 461.403076,273.063110 
	C465.961914,273.471985 474.894836,268.430786 476.526581,263.839539 
	C478.226685,259.055939 478.919525,254.038971 475.625244,249.318130 
	C471.799255,243.835281 467.332703,239.875092 459.277039,241.764954 
z"/>
<path fill="#0857A3" opacity="1.000000" stroke="none" 
	d="
M389.192993,241.979858 
	C389.192993,241.979858 389.571289,242.016891 389.818756,242.223907 
	C390.368225,242.272110 390.670197,242.113312 390.972168,241.954498 
	C390.972168,241.954498 390.997009,242.001831 391.260620,241.949356 
	C394.324524,241.590103 393.747833,239.862167 393.117218,238.111511 
	C396.865356,234.849182 400.555176,231.516068 404.388275,228.356781 
	C406.098694,226.947037 408.036865,224.961975 409.975830,224.835541 
	C416.661316,224.399567 423.392731,224.667801 431.577454,224.667801 
	C428.517639,228.176620 426.374054,230.848755 424.005951,233.304367 
	C419.535889,237.939697 414.698669,242.248825 410.548950,247.146744 
	C409.432770,248.464172 409.320496,252.037445 410.317810,253.515717 
	C417.653473,264.389343 425.399170,274.985962 432.976013,285.697906 
	C433.620087,286.608459 433.975159,287.723419 434.933258,289.720490 
	C428.421051,289.720490 422.436340,290.408203 416.746765,289.411285 
	C414.157257,288.957581 412.068207,285.247925 409.915802,282.867188 
	C408.835663,281.672485 408.122070,280.146393 407.158691,278.177795 
	C406.619232,271.522369 402.458221,268.144226 397.962219,265.008789 
	C397.377258,264.543549 396.792267,264.078308 395.911438,263.096893 
	C394.405090,259.748810 392.915161,260.364990 391.077393,262.057983 
	C387.530212,265.325623 386.001373,269.392487 386.060638,274.097412 
	C386.104401,277.576019 386.560913,281.065704 386.356506,284.522247 
	C386.286346,285.708649 384.773529,287.782593 383.915100,287.785004 
	C379.650604,287.797028 375.384521,287.252930 371.097076,286.593628 
	C371.127533,285.870361 371.179962,285.458191 371.393982,284.665833 
	C371.699951,282.133942 371.966888,279.982452 371.970032,277.830536 
	C372.004974,253.837006 372.070831,229.843002 371.936981,205.850204 
	C371.913391,201.627808 373.125671,199.616852 377.616577,199.945465 
	C379.712555,200.098862 381.863892,199.496048 383.990112,199.235992 
	C384.721069,199.207794 385.452026,199.179611 386.549286,199.621033 
	C386.620514,204.702301 386.152161,209.310760 386.066559,213.926331 
	C385.889923,223.453278 385.890747,232.984177 385.954895,242.512543 
	C385.957581,242.907043 387.338562,243.292282 388.340240,243.595337 
	C388.799713,242.999191 388.996338,242.489517 389.192993,241.979858 
z"/>
<path fill="#0856A0" opacity="1.000000" stroke="none" 
	d="
M544.195007,243.008743 
	C544.137573,242.849762 544.080078,242.690765 544.073364,242.016571 
	C543.582275,241.025970 543.105469,240.258026 542.488525,240.120895 
	C536.895630,238.877914 536.323181,237.224426 536.365479,231.784134 
	C536.404785,226.735519 540.718628,226.451141 542.967712,223.920151 
	C542.994629,217.428406 543.204224,210.930420 542.982971,204.447144 
	C542.840454,200.268173 544.459656,198.766891 548.547546,199.013382 
	C552.685364,199.262894 556.849854,199.068420 561.746399,199.068420 
	C561.746399,207.340240 561.746399,215.373642 561.746399,222.852509 
	C565.950684,225.896301 573.067139,220.796494 573.838684,228.617798 
	C574.215942,232.442062 575.092407,237.310760 573.235535,239.927643 
	C571.651855,242.159576 566.481567,241.846603 561.371155,243.005707 
	C562.053467,250.578049 562.590759,258.873779 563.733276,267.085327 
	C563.940674,268.576294 566.455139,270.490723 568.199768,270.877167 
	C572.598328,271.851532 574.317810,274.210175 573.990967,278.535400 
	C573.828735,280.682190 573.945801,282.850891 573.954468,285.009613 
	C573.974304,289.945435 572.275696,291.424652 567.274536,290.084839 
	C563.655640,289.115356 560.214844,287.481140 556.491699,285.680115 
	C555.370667,283.636108 554.585510,281.955383 553.494690,280.504547 
	C552.529907,279.221313 550.562683,278.378571 550.184692,277.021851 
	C548.559265,271.188904 547.056091,265.285736 546.109863,259.312897 
	C545.518066,255.577240 546.172668,251.660034 545.913940,247.848328 
	C545.802307,246.203827 544.795288,244.620087 544.195007,243.008743 
z"/>
<path fill="#0657A4" opacity="1.000000" stroke="none" 
	d="
M223.504120,241.999496 
	C222.713089,241.223099 222.371429,240.404709 221.990402,239.250305 
	C222.651047,235.600143 224.466568,232.037262 223.795746,229.028732 
	C222.726990,224.235413 224.838043,224.038879 228.254471,224.080231 
	C229.713165,224.097870 231.175095,223.849899 233.215637,223.179169 
	C234.195755,217.091415 234.954788,211.542953 234.890762,206.003998 
	C234.831573,200.884109 237.303177,199.861496 241.697876,199.957275 
	C248.889816,200.114029 249.805344,200.575470 249.946060,206.130020 
	C250.068222,210.952774 249.674469,215.816833 250.198395,220.586884 
	C250.400345,222.425491 252.171021,225.066376 253.801132,225.605438 
	C260.991821,227.983307 261.968719,228.795654 260.831177,236.070099 
	C260.601410,237.539352 258.472809,239.594803 256.974884,239.831604 
	C250.045700,240.927094 250.013062,240.731354 249.989441,247.711838 
	C249.978745,250.873367 249.772507,254.053192 250.053406,257.189026 
	C250.200867,258.835083 251.208099,260.404144 251.827072,262.007965 
	C252.348923,265.985962 253.055817,269.860474 257.888275,271.878662 
	C258.675323,271.984467 258.856964,271.978699 259.038605,271.972961 
	C259.038605,271.972961 258.995758,271.996124 259.096405,272.352631 
	C262.903046,280.965698 261.877472,286.174194 255.985840,289.017212 
	C255.985840,289.017212 255.503387,288.960327 254.994324,288.981262 
	C254.307755,289.014343 254.130234,289.026489 253.952713,289.038605 
	C253.952713,289.038605 254.000549,289.003723 253.872314,288.705017 
	C248.842972,285.261383 243.941833,282.116425 239.040710,278.971497 
	C239.040710,278.971497 238.999390,278.999969 238.993484,278.601929 
	C237.391998,274.464478 235.796417,270.725128 234.200836,266.985748 
	C234.137573,260.835785 234.047760,254.685913 234.018158,248.535782 
	C233.985626,241.779205 234.006165,241.772003 227.443756,241.851151 
	C226.280075,241.865173 225.116898,241.920990 223.504120,241.999496 
z"/>
<path fill="#08569F" opacity="1.000000" stroke="none" 
	d="
M542.534668,223.979218 
	C540.718628,226.451141 536.404785,226.735519 536.365479,231.784134 
	C536.323181,237.224426 536.895630,238.877914 542.488525,240.120895 
	C543.105469,240.258026 543.582275,241.025970 544.034119,241.766022 
	C539.970398,241.989304 535.995911,241.985367 532.023193,241.898605 
	C523.921448,241.721664 521.216125,243.982224 519.493652,252.960754 
	C519.364868,264.510101 519.510559,275.327087 519.656250,286.144043 
	C518.552795,287.403473 517.470154,288.682465 516.321960,289.899689 
	C516.163635,290.067596 515.680542,289.937531 515.348022,289.931763 
	C498.165771,289.634674 501.291565,292.396729 501.129456,276.414154 
	C501.002472,263.894714 499.821777,251.228149 504.550995,239.119568 
	C506.950195,232.976761 511.541687,229.045227 517.237244,226.183029 
	C518.523499,225.536621 519.904968,225.082352 521.222839,224.495392 
	C525.612976,222.540100 529.875183,224.536758 531.043091,229.054626 
	C531.408264,230.467331 531.970276,231.829178 532.797668,234.257660 
	C534.153198,228.565643 533.903748,221.856308 542.534668,223.979218 
z"/>
<path fill="#0557A7" opacity="1.000000" stroke="none" 
	d="
M337.026215,260.063599 
	C337.027405,259.614532 337.028564,259.165436 337.197693,258.041260 
	C338.618469,252.431534 339.946472,247.514511 341.107452,242.558380 
	C343.110168,234.008835 351.682800,226.546799 360.258698,226.174133 
	C361.277252,226.129868 362.699310,226.576065 363.303711,227.312500 
	C365.973541,230.565414 363.418945,239.265030 359.412384,241.074387 
	C353.847015,243.587708 352.471039,246.619629 354.008026,252.982666 
	C353.965210,262.313873 353.922363,271.645081 353.558411,281.645081 
	C353.021515,282.564972 352.711975,282.781311 352.603912,283.072418 
	C350.826813,287.860107 347.772827,289.129211 341.174774,287.918793 
	C336.509338,287.062927 338.227936,283.374420 338.049774,280.711945 
	C337.607147,274.097961 337.443909,267.465271 337.099304,260.652100 
	C337.030151,260.464142 337.026215,260.063599 337.026215,260.063599 
z"/>
<path fill="#13508A" opacity="1.000000" stroke="none" 
	d="
M251.895950,261.544128 
	C251.208099,260.404144 250.200867,258.835083 250.053406,257.189026 
	C249.772507,254.053192 249.978745,250.873367 249.989441,247.711838 
	C250.013062,240.731354 250.045700,240.927094 256.974884,239.831604 
	C258.472809,239.594803 260.601410,237.539352 260.831177,236.070099 
	C261.968719,228.795654 260.991821,227.983307 253.801132,225.605438 
	C252.171021,225.066376 250.400345,222.425491 250.198395,220.586884 
	C249.674469,215.816833 250.068222,210.952774 249.946060,206.130020 
	C249.805344,200.575470 248.889816,200.114029 241.697876,199.957275 
	C237.303177,199.861496 234.831573,200.884109 234.890762,206.003998 
	C234.954788,211.542953 234.195755,217.091415 233.478088,222.851166 
	C233.103348,216.413315 233.123215,209.758102 232.953461,203.107727 
	C232.879471,200.208755 233.772308,198.842651 236.916000,198.968002 
	C241.690475,199.158371 246.478149,199.017792 251.904953,199.017792 
	C251.904953,207.580429 251.904953,215.468094 251.904953,223.533020 
	C253.291748,223.762360 254.070282,223.981079 254.855194,224.007034 
	C262.933655,224.274384 263.011627,224.266388 262.940460,232.204803 
	C262.912842,235.285904 263.550842,239.510086 261.874023,241.125702 
	C260.128815,242.807205 255.955124,241.968231 251.964828,242.305603 
	C251.964828,248.576965 251.964828,254.828644 251.895950,261.544128 
z"/>
<path fill="#13508A" opacity="1.000000" stroke="none" 
	d="
M354.314148,252.782532 
	C352.471039,246.619629 353.847015,243.587708 359.412384,241.074387 
	C363.418945,239.265030 365.973541,230.565414 363.303711,227.312500 
	C362.699310,226.576065 361.277252,226.129868 360.258698,226.174133 
	C351.682800,226.546799 343.110168,234.008835 341.107452,242.558380 
	C339.946472,247.514511 338.618469,252.431534 337.154266,257.707123 
	C336.658478,247.084747 337.286285,236.474335 347.282166,229.159454 
	C352.671051,225.215927 358.469055,223.083878 365.960602,224.516327 
	C365.960602,229.319168 366.053894,234.186935 365.878265,239.044983 
	C365.845001,239.965088 364.801819,241.580063 364.127655,241.632706 
	C357.256775,242.169205 355.964447,247.365036 354.314148,252.782532 
z"/>
<path fill="#D5A64A" opacity="1.000000" stroke="none" 
	d="
M239.637756,102.034805 
	C237.587952,107.497505 235.083618,113.057671 232.890762,118.738075 
	C229.641205,127.155746 229.994675,135.759644 230.875015,144.665878 
	C231.863220,154.663177 237.160294,162.630981 240.959244,171.711853 
	C233.810715,165.510147 231.029449,156.708969 229.095657,147.698044 
	C226.500092,135.603424 227.983688,123.727539 233.013596,112.445328 
	C234.634109,108.810478 237.192947,105.593956 239.637756,102.034805 
z"/>
<path fill="#104D88" opacity="1.000000" stroke="none" 
	d="
M383.530823,199.159210 
	C381.863892,199.496048 379.712555,200.098862 377.616577,199.945465 
	C373.125671,199.616852 371.913391,201.627808 371.936981,205.850204 
	C372.070831,229.843002 372.004974,253.837006 371.970032,277.830536 
	C371.966888,279.982452 371.699951,282.133942 371.353699,284.192780 
	C371.077393,270.473175 371.029999,256.846191 370.895538,243.220047 
	C370.877991,241.443924 370.412598,239.672211 370.154633,237.898453 
	C370.098206,226.571930 370.217560,215.240356 369.892883,203.921524 
	C369.774384,199.789612 371.300995,198.627182 375.080444,198.972519 
	C377.725433,199.214188 380.406555,199.059891 383.530823,199.159210 
z"/>
<path fill="#08569F" opacity="1.000000" stroke="none" 
	d="
M543.997681,243.384949 
	C544.795288,244.620087 545.802307,246.203827 545.913940,247.848328 
	C546.172668,251.660034 545.518066,255.577240 546.109863,259.312897 
	C547.056091,265.285736 548.559265,271.188904 550.184692,277.021851 
	C550.562683,278.378571 552.529907,279.221313 553.494690,280.504547 
	C554.585510,281.955383 555.370667,283.636108 556.179810,285.498718 
	C555.084412,285.326843 554.097839,284.873169 552.791016,284.058472 
	C552.342712,283.472809 552.174988,283.283356 551.967407,283.129089 
	C551.967407,283.129089 551.862122,283.113770 551.845581,282.891876 
	C551.520630,282.497711 551.212158,282.325409 550.903748,282.153137 
	C542.246948,270.519440 542.304565,257.273346 543.997681,243.384949 
z"/>
<path fill="#104D88" opacity="1.000000" stroke="none" 
	d="
M371.119019,286.904724 
	C375.384521,287.252930 379.650604,287.797028 383.915100,287.785004 
	C384.773529,287.782593 386.286346,285.708649 386.356506,284.522247 
	C386.560913,281.065704 386.104401,277.576019 386.060638,274.097412 
	C386.001373,269.392487 387.530212,265.325623 391.077393,262.057983 
	C392.915161,260.364990 394.405090,259.748810 395.738770,262.872101 
	C391.385376,263.613770 388.991425,266.006592 388.977142,270.585510 
	C388.962097,275.408997 388.886597,280.234467 388.996124,285.055450 
	C389.074707,288.512482 387.967255,290.413422 384.113190,290.039703 
	C380.030701,289.643860 375.922882,289.508698 371.457214,288.715088 
	C371.098541,287.748566 371.108765,287.326630 371.119019,286.904724 
z"/>
<path fill="#104D88" opacity="1.000000" stroke="none" 
	d="
M388.077423,243.681839 
	C387.338562,243.292282 385.957581,242.907043 385.954895,242.512543 
	C385.890747,232.984177 385.889923,223.453278 386.066559,213.926331 
	C386.152161,209.310760 386.620514,204.702301 386.911682,199.676697 
	C387.594604,199.882706 388.281464,200.502625 388.612000,201.767395 
	C388.196259,216.168777 388.136841,229.925308 388.077423,243.681839 
z"/>
<path fill="#13508A" opacity="1.000000" stroke="none" 
	d="
M207.075195,287.375977 
	C210.918167,287.356018 214.865662,287.650757 218.806961,288.013062 
	C222.715942,288.372406 224.125504,286.591125 224.047760,282.749786 
	C223.882721,274.595764 223.964844,266.435455 224.044205,258.278687 
	C224.061630,256.489044 224.490417,254.703354 224.932587,253.057938 
	C225.096909,265.078247 225.058395,276.956482 225.019867,288.834717 
	C219.367432,289.038269 213.715454,289.267212 208.061188,289.370636 
	C207.776627,289.375854 207.472183,288.295288 207.075195,287.375977 
z"/>
<path fill="#13508A" opacity="1.000000" stroke="none" 
	d="
M337.168457,260.840088 
	C337.443909,267.465271 337.607147,274.097961 338.049774,280.711945 
	C338.227936,283.374420 336.509338,287.062927 341.174774,287.918793 
	C347.772827,289.129211 350.826813,287.860107 352.603912,283.072418 
	C352.711975,282.781311 353.021515,282.564972 353.530090,282.106567 
	C354.377380,289.985687 354.369629,290.196564 346.159058,289.894623 
	C342.831879,289.772278 339.546722,288.506348 336.497131,287.039246 
	C336.890656,277.825134 337.029541,269.332611 337.168457,260.840088 
z"/>
<path fill="#19528B" opacity="1.000000" stroke="none" 
	d="
M309.331512,288.836792 
	C310.068634,287.739929 311.093353,286.579742 312.288208,285.634613 
	C316.174561,282.560577 320.346130,279.800293 323.922485,276.407562 
	C325.116302,275.275055 324.848999,272.602325 325.112793,270.301819 
	C326.118256,269.749481 327.260529,269.528992 328.402802,269.308472 
	C328.406982,270.546417 328.786865,271.936920 328.355896,272.998169 
	C324.906158,281.493561 317.794586,285.783173 309.331512,288.836792 
z"/>
<path fill="#19528B" opacity="1.000000" stroke="none" 
	d="
M267.703735,244.211258 
	C266.572144,253.138184 266.137573,262.223419 268.991089,271.597137 
	C268.396332,271.866211 267.316467,271.835419 267.260254,271.579651 
	C265.269470,262.520416 262.854767,253.436371 267.703735,244.211258 
z"/>
<path fill="#13508A" opacity="1.000000" stroke="none" 
	d="
M256.230713,289.336670 
	C261.877472,286.174194 262.903046,280.965698 259.110229,272.332367 
	C260.080566,272.279022 262.036011,272.547943 262.059418,272.934021 
	C262.382416,278.261719 262.548584,283.610565 262.300537,288.933136 
	C262.285126,289.263885 258.504425,289.419189 256.230713,289.336670 
z"/>
<path fill="#545FA3" opacity="1.000000" stroke="none" 
	d="
M371.097046,286.593628 
	C371.108765,287.326630 371.098541,287.748566 371.106018,288.485138 
	C370.744171,287.188354 370.043182,285.578491 370.035065,283.965179 
	C369.959229,268.928070 370.002411,253.890335 370.082886,238.375626 
	C370.412598,239.672211 370.877991,241.443924 370.895538,243.220047 
	C371.029999,256.846191 371.077393,270.473175 371.192108,284.572968 
	C371.179962,285.458191 371.127533,285.870361 371.097046,286.593628 
z"/>
<path fill="#19528B" opacity="1.000000" stroke="none" 
	d="
M289.373657,289.002716 
	C295.130310,288.735565 301.222992,288.667755 307.672333,288.811951 
	C301.945923,291.485840 295.843781,291.983490 289.373657,289.002716 
z"/>
<path fill="#19528B" opacity="1.000000" stroke="none" 
	d="
M270.954987,276.401123 
	C276.539185,280.108032 282.141632,284.166199 287.879883,288.524384 
	C280.552155,287.317139 275.206390,282.820099 270.954987,276.401123 
z"/>
<path fill="#A2CAEF" opacity="1.000000" stroke="none" 
	d="
M388.340240,243.595337 
	C388.136841,229.925308 388.196259,216.168777 388.562622,202.092133 
	C388.921539,214.865448 388.973480,227.958878 389.109192,241.516083 
	C388.996338,242.489517 388.799713,242.999191 388.340240,243.595337 
z"/>
<path fill="#13508A" opacity="1.000000" stroke="none" 
	d="
M239.067871,279.321411 
	C243.941833,282.116425 248.842972,285.261383 253.857468,288.730682 
	C247.909012,287.676056 242.364395,285.477142 239.067871,279.321411 
z"/>
<path fill="#618BB3" opacity="1.000000" stroke="none" 
	d="
M225.363678,288.597473 
	C225.058395,276.956482 225.096909,265.078247 225.191864,252.759399 
	C225.248322,252.318756 225.241943,252.229080 225.370270,252.234848 
	C225.498596,252.240616 225.841827,252.289886 225.841827,252.289886 
	C225.797043,264.313324 225.752274,276.336761 225.363678,288.597473 
z"/>
<path fill="#19528B" opacity="1.000000" stroke="none" 
	d="
M105.348465,289.017029 
	C110.462395,288.758545 115.929733,288.694641 121.768860,288.829712 
	C116.684753,291.217804 111.200882,290.895142 105.348465,289.017029 
z"/>
<path fill="#19528B" opacity="1.000000" stroke="none" 
	d="
M88.104698,281.364319 
	C93.203499,283.446289 98.454727,285.841003 103.857201,288.532074 
	C98.329414,287.388641 92.491936,286.297821 88.104698,281.364319 
z"/>
<path fill="#D2E9FE" opacity="1.000000" stroke="none" 
	d="
M519.807312,285.678406 
	C519.510559,275.327087 519.364868,264.510101 519.476807,253.365601 
	C519.809021,263.762939 519.883667,274.487854 519.807312,285.678406 
z"/>
<path fill="#104D88" opacity="1.000000" stroke="none" 
	d="
M398.013672,265.360352 
	C402.458221,268.144226 406.619232,271.522369 406.979736,277.889801 
	C403.944885,274.033447 401.005035,269.872681 398.013672,265.360352 
z"/>
<path fill="#29648D" opacity="1.000000" stroke="none" 
	d="
M495.809814,282.527924 
	C495.639679,273.240631 495.542450,263.488495 495.630554,253.367645 
	C495.838135,262.686951 495.860413,272.375031 495.809814,282.527924 
z"/>
<path fill="#F3B56B" opacity="1.000000" stroke="none" 
	d="
M429.009705,73.722458 
	C419.372192,73.953346 409.483765,73.800659 399.224457,73.428436 
	C408.821991,73.252220 418.790344,73.295555 429.009705,73.722458 
z"/>
<path fill="#D5A64A" opacity="1.000000" stroke="none" 
	d="
M240.941513,172.406891 
	C243.887161,175.159698 246.873169,178.271469 249.918671,181.727295 
	C246.979401,178.969543 243.980621,175.867691 240.941513,172.406891 
z"/>
<path fill="#19528B" opacity="1.000000" stroke="none" 
	d="
M466.916260,223.587296 
	C462.642487,224.402161 458.124634,224.853867 453.283203,225.166916 
	C457.530487,224.426895 462.101318,223.825516 466.916260,223.587296 
z"/>
<path fill="#FFFFFF" opacity="1.000000" stroke="none" 
	d="
M400.072449,198.273560 
	C408.792511,197.937759 417.657379,198.034531 426.797546,198.463928 
	C418.120972,198.766418 409.169098,198.736282 400.072449,198.273560 
z"/>
<path fill="#A2CAEF" opacity="1.000000" stroke="none" 
	d="
M337.099304,260.652100 
	C337.029541,269.332611 336.890656,277.825134 336.502502,286.655396 
	C336.237915,278.122314 336.222595,269.251465 336.616730,260.222107 
	C337.026215,260.063599 337.030151,260.464142 337.099304,260.652100 
z"/>
<path fill="#19528B" opacity="1.000000" stroke="none" 
	d="
M124.400208,289.007935 
	C128.421005,287.032104 132.832306,285.045319 137.630157,283.049988 
	C133.608063,285.026642 129.199371,287.011841 124.400208,289.007935 
z"/>
<path fill="#D5A64A" opacity="1.000000" stroke="none" 
	d="
M247.617203,93.052353 
	C245.485657,95.907112 243.026535,98.876961 240.221436,101.907394 
	C242.346832,99.034477 244.818222,96.100960 247.617203,93.052353 
z"/>
<path fill="#D5A64A" opacity="1.000000" stroke="none" 
	d="
M256.592896,85.912201 
	C254.182770,88.211754 251.405945,90.556656 248.276215,92.927383 
	C248.829208,88.411713 252.908417,87.636505 256.592896,85.912201 
z"/>
<path fill="#19528B" opacity="1.000000" stroke="none" 
	d="
M72.134308,254.378845 
	C73.796768,258.390839 75.401909,262.791779 77.003693,267.593018 
	C75.359222,263.584808 73.718102,259.176300 72.134308,254.378845 
z"/>
<path fill="#13508A" opacity="1.000000" stroke="none" 
	d="
M234.146576,267.382812 
	C235.796417,270.725128 237.391998,274.464478 239.009811,278.582703 
	C235.010208,276.283661 234.761490,271.938873 234.146576,267.382812 
z"/>
<path fill="#19528B" opacity="1.000000" stroke="none" 
	d="
M430.658325,246.104782 
	C430.753601,252.064651 430.508087,258.235870 430.111664,264.726807 
	C430.079712,258.803040 430.198639,252.559586 430.658325,246.104782 
z"/>
<path fill="#19528B" opacity="1.000000" stroke="none" 
	d="
M450.728882,225.122620 
	C448.001984,227.128448 444.909546,229.056747 441.455383,231.023560 
	C444.183563,229.056412 447.273438,227.050735 450.728882,225.122620 
z"/>
<path fill="#19528B" opacity="1.000000" stroke="none" 
	d="
M320.549622,270.119934 
	C316.612854,270.453949 312.237885,270.712769 307.396698,270.950684 
	C308.610565,270.323212 310.277679,269.262726 311.973724,269.214203 
	C314.676147,269.136841 317.397858,269.733307 320.549622,270.119934 
z"/>
<path fill="#D5A64A" opacity="1.000000" stroke="none" 
	d="
M265.533875,81.939163 
	C263.172577,83.244926 260.414917,84.591087 257.274048,85.943237 
	C259.639740,84.626007 262.388611,83.302780 265.533875,81.939163 
z"/>
<path fill="#19528B" opacity="1.000000" stroke="none" 
	d="
M306.572357,270.907166 
	C303.984161,274.949799 299.845032,274.135559 295.411621,273.401672 
	C298.764160,272.463593 302.467834,271.685455 306.572357,270.907166 
z"/>
<path fill="#D5A64A" opacity="1.000000" stroke="none" 
	d="
M266.111694,192.319443 
	C268.557373,193.041214 271.163422,194.082214 273.879700,195.443787 
	C271.417297,194.722458 268.844635,193.680573 266.111694,192.319443 
z"/>
<path fill="#19528B" opacity="1.000000" stroke="none" 
	d="
M81.723183,275.864716 
	C83.309410,276.858917 85.065361,278.113281 86.886192,279.708923 
	C85.265015,278.741730 83.578964,277.433319 81.723183,275.864716 
z"/>
<path fill="#19528B" opacity="1.000000" stroke="none" 
	d="
M439.193604,281.311432 
	C440.658539,282.116608 442.232239,283.254272 443.870422,284.734253 
	C442.390686,283.932373 440.846527,282.788116 439.193604,281.311432 
z"/>
<path fill="#D5A64A" opacity="1.000000" stroke="none" 
	d="
M260.106079,189.341324 
	C261.888336,189.808990 263.811523,190.601730 265.871704,191.720917 
	C264.088165,191.253708 262.167542,190.460052 260.106079,189.341324 
z"/>
<path fill="#19528B" opacity="1.000000" stroke="none" 
	d="
M486.933228,234.683411 
	C485.382935,233.656433 483.711609,232.312469 481.978027,230.634827 
	C483.547943,231.656250 485.180084,233.011337 486.933228,234.683411 
z"/>
<path fill="#19528B" opacity="1.000000" stroke="none" 
	d="
M144.392471,278.042664 
	C145.395477,276.365662 146.745224,274.673340 148.439087,272.921997 
	C147.435196,274.584442 146.087204,276.305878 144.392471,278.042664 
z"/>
<path fill="#19528B" opacity="1.000000" stroke="none" 
	d="
M139.410889,282.079407 
	C140.488602,280.755524 141.906998,279.414062 143.685455,278.062195 
	C142.614212,279.388519 141.182907,280.725189 139.410889,282.079407 
z"/>
<path fill="#19528B" opacity="1.000000" stroke="none" 
	d="
M430.141907,267.329071 
	C431.139435,268.782898 432.068329,270.600311 432.987915,272.792542 
	C432.010162,271.342438 431.041718,269.517548 430.141907,267.329071 
z"/>
<path fill="#D8AC51" opacity="1.000000" stroke="none" 
	d="
M332.607788,143.946121 
	C331.839233,145.239029 330.718109,146.561523 329.253235,147.923859 
	C330.024750,146.634384 331.140015,145.305038 332.607788,143.946121 
z"/>
<path fill="#D8AC51" opacity="1.000000" stroke="none" 
	d="
M328.615417,147.945419 
	C327.846924,149.199585 326.729889,150.488815 325.281616,151.840912 
	C326.055939,150.596024 327.161438,149.288254 328.615417,147.945419 
z"/>
<path fill="#D8AC51" opacity="1.000000" stroke="none" 
	d="
M346.621887,128.979492 
	C345.840698,130.237869 344.751770,131.603058 343.292725,132.961487 
	C344.053101,131.665253 345.183655,130.375778 346.621887,128.979492 
z"/>
<path fill="#19528B" opacity="1.000000" stroke="none" 
	d="
M432.689453,240.961243 
	C432.539032,242.134735 432.099426,243.426147 431.352234,244.880966 
	C431.496490,243.722626 431.948364,242.400879 432.689453,240.961243 
z"/>
<path fill="#D5A64A" opacity="1.000000" stroke="none" 
	d="
M249.971741,182.384003 
	C251.209473,182.821808 252.491760,183.617599 253.886826,184.730057 
	C252.671829,184.278473 251.344070,183.510223 249.971741,182.384003 
z"/>
<path fill="#19528B" opacity="1.000000" stroke="none" 
	d="
M433.891418,275.448730 
	C434.917267,276.180603 435.932434,277.249512 436.968597,278.673096 
	C435.953308,277.947113 434.916992,276.866425 433.891418,275.448730 
z"/>
<path fill="#104D88" opacity="1.000000" stroke="none" 
	d="
M392.783966,238.185883 
	C393.747833,239.862167 394.324524,241.590103 391.238525,241.934204 
	C391.452118,240.734436 391.951416,239.497330 392.783966,238.185883 
z"/>
<path fill="#19528B" opacity="1.000000" stroke="none" 
	d="
M269.014435,272.349182 
	C269.653076,273.111237 270.308075,274.221405 270.949768,275.689209 
	C270.301208,274.930359 269.666016,273.813843 269.014435,272.349182 
z"/>
<path fill="#D8AC51" opacity="1.000000" stroke="none" 
	d="
M338.614502,137.951157 
	C338.176086,138.895279 337.382172,139.877960 336.255676,140.916809 
	C336.701782,139.978577 337.480408,138.984161 338.614502,137.951157 
z"/>
<path fill="#19528B" opacity="1.000000" stroke="none" 
	d="
M77.005768,268.371887 
	C77.654266,268.813782 78.301163,269.627167 78.968262,270.781097 
	C78.327019,270.328918 77.665596,269.536163 77.005768,268.371887 
z"/>
<path fill="#19528B" opacity="1.000000" stroke="none" 
	d="
M479.882263,228.676575 
	C478.789215,228.533691 477.535492,228.094208 476.131104,227.345825 
	C477.227478,227.484604 478.474548,227.932281 479.882263,228.676575 
z"/>
<path fill="#D8AC51" opacity="1.000000" stroke="none" 
	d="
M350.650818,125.004242 
	C350.172760,125.918350 349.389984,126.923035 348.251526,127.940170 
	C348.712555,127.000015 349.529327,126.047417 350.650818,125.004242 
z"/>
<path fill="#D5A64A" opacity="1.000000" stroke="none" 
	d="
M257.053925,187.333969 
	C257.884491,187.483124 258.833954,187.942291 259.888733,188.720337 
	C259.053619,188.574127 258.113220,188.109055 257.053925,187.333969 
z"/>
<path fill="#D5A64A" opacity="1.000000" stroke="none" 
	d="
M254.079651,185.316956 
	C254.887573,185.489395 255.820053,185.970245 256.873108,186.761017 
	C256.063843,186.589066 255.134033,186.107208 254.079651,185.316956 
z"/>
<path fill="#D8AC51" opacity="1.000000" stroke="none" 
	d="
M342.637329,133.023819 
	C342.484100,133.865723 342.015381,134.808289 341.229492,135.871887 
	C341.382141,135.036774 341.851959,134.080627 342.637329,133.023819 
z"/>
<path fill="#19528B" opacity="1.000000" stroke="none" 
	d="
M293.972931,272.703491 
	C293.235504,272.771820 292.386932,272.549652 291.279968,272.118896 
	C291.968262,272.077850 292.915039,272.245422 293.972931,272.703491 
z"/>
<path fill="#19528B" opacity="1.000000" stroke="none" 
	d="
M470.883606,224.735626 
	C470.401642,224.909302 469.753815,224.814133 469.003357,224.507401 
	C469.506409,224.352829 470.112091,224.409805 470.883606,224.735626 
z"/>
<path fill="#19528B" opacity="1.000000" stroke="none" 
	d="
M79.934830,273.362183 
	C80.462593,273.640137 80.999619,274.234894 81.467545,275.159180 
	C80.913658,274.885437 80.428871,274.282196 79.934830,273.362183 
z"/>
<path fill="#13508A" opacity="1.000000" stroke="none" 
	d="
M224.864731,248.748627 
	C224.413422,249.001999 224.008026,248.911270 223.602631,248.820541 
	C223.878922,248.311920 224.155212,247.803314 224.617554,247.159973 
	C224.839294,247.485001 224.874969,247.944748 224.864731,248.748627 
z"/>
<path fill="#19528B" opacity="1.000000" stroke="none" 
	d="
M491.965668,240.586563 
	C491.406738,240.430954 490.836212,239.943863 490.182190,239.170517 
	C490.717163,239.341202 491.335632,239.798141 491.965668,240.586563 
z"/>
<path fill="#19528B" opacity="1.000000" stroke="none" 
	d="
M488.819763,236.701065 
	C488.516663,236.565750 488.283020,236.131149 487.987000,235.456055 
	C488.246155,235.610977 488.567688,236.006378 488.819763,236.701065 
z"/>
<path fill="#0856A0" opacity="1.000000" stroke="none" 
	d="
M550.980591,282.377197 
	C551.212158,282.325409 551.520630,282.497711 551.851868,282.839050 
	C551.521851,283.033661 551.249451,282.898041 550.980591,282.377197 
z"/>
<path fill="#19528B" opacity="1.000000" stroke="none" 
	d="
M444.110352,285.321533 
	C444.494019,285.239166 445.036652,285.417389 445.798157,285.783844 
	C445.434448,285.842102 444.851898,285.712128 444.110352,285.321533 
z"/>
<path fill="#19528B" opacity="1.000000" stroke="none" 
	d="
M268.720276,241.103821 
	C268.840515,241.469208 268.705994,241.990128 268.428162,242.740814 
	C268.345093,242.400177 268.405304,241.829742 268.720276,241.103821 
z"/>
<path fill="#104D88" opacity="1.000000" stroke="none" 
	d="
M390.710205,241.979156 
	C390.670197,242.113312 390.368225,242.272110 390.001099,242.277496 
	C390.106750,242.083984 390.277527,242.043884 390.710205,241.979156 
z"/>
<path fill="#19528B" opacity="1.000000" stroke="none" 
	d="
M87.006439,280.293213 
	C87.237030,280.192413 87.486580,280.401672 87.839005,280.856659 
	C87.673286,280.891998 87.367798,280.725647 87.006439,280.293213 
z"/>
<path fill="#19528B" opacity="1.000000" stroke="none" 
	d="
M433.645905,238.945831 
	C433.762024,239.146576 433.589539,239.442413 433.252747,239.938736 
	C433.178040,239.773117 433.267670,239.407028 433.645905,238.945831 
z"/>
<path fill="#13508A" opacity="1.000000" stroke="none" 
	d="
M254.045563,289.238342 
	C254.130234,289.026489 254.307755,289.014343 254.752289,289.001770 
	C254.725693,289.146912 254.432053,289.292511 254.045563,289.238342 
z"/>
<path fill="#19528B" opacity="1.000000" stroke="none" 
	d="
M123.052582,289.193909 
	C123.145775,288.987976 123.320045,288.986450 123.755341,288.998962 
	C123.722137,289.141418 123.427895,289.269836 123.052582,289.193909 
z"/>
<path fill="#D8AC51" opacity="1.000000" stroke="none" 
	d="
M351.739990,123.933243 
	C351.783447,124.103882 351.561279,124.385330 351.132019,124.838142 
	C351.108063,124.687691 351.291229,124.365875 351.739990,123.933243 
z"/>
<path fill="#19528B" opacity="1.000000" stroke="none" 
	d="
M269.736511,240.011230 
	C269.777435,240.181763 269.564423,240.439499 269.147339,240.845016 
	C269.122986,240.694672 269.302765,240.396545 269.736511,240.011230 
z"/>
<path fill="#19528B" opacity="1.000000" stroke="none" 
	d="
M446.110046,286.190491 
	C446.282990,286.093933 446.508148,286.252563 446.838379,286.611572 
	C446.633545,286.817322 446.373199,286.695251 446.110046,286.190491 
z"/>
<path fill="#19528B" opacity="1.000000" stroke="none" 
	d="
M440.809875,231.175720 
	C440.878906,231.373840 440.670776,231.598724 440.219666,231.899963 
	C440.097717,231.681091 440.283081,231.423141 440.809875,231.175720 
z"/>
<path fill="#0856A0" opacity="1.000000" stroke="none" 
	d="
M551.948242,283.343811 
	C552.174988,283.283356 552.342712,283.472809 552.513733,283.878693 
	C552.240173,284.027649 552.030945,283.860504 551.948242,283.343811 
z"/>
<path fill="#D8AC51" opacity="1.000000" stroke="none" 
	d="
M347.729614,127.980026 
	C347.782440,128.177139 347.554749,128.433929 347.121704,128.847260 
	C347.093933,128.682434 347.271515,128.361069 347.729614,127.980026 
z"/>
<path fill="#19528B" opacity="1.000000" stroke="none" 
	d="
M138.283691,282.964783 
	C138.201263,282.749054 138.416229,282.507904 138.871979,282.164764 
	C138.895325,282.319122 138.718094,282.611298 138.283691,282.964783 
z"/>
<path fill="#19528B" opacity="1.000000" stroke="none" 
	d="
M480.966858,229.748688 
	C480.767151,229.825119 480.514435,229.611115 480.151825,229.152786 
	C480.297607,229.133011 480.588257,229.316269 480.966858,229.748688 
z"/>
<path fill="#19528B" opacity="1.000000" stroke="none" 
	d="
M492.832825,241.729141 
	C492.625153,241.784683 492.443146,241.586533 492.184875,241.192230 
	C492.430817,241.027954 492.680756,241.187744 492.832825,241.729141 
z"/>
<path fill="#13508A" opacity="1.000000" stroke="none" 
	d="
M258.953217,271.763367 
	C258.856964,271.978699 258.675323,271.984467 258.220978,271.985413 
	C258.254791,271.838318 258.561310,271.696045 258.953217,271.763367 
z"/>
<path fill="#19528B" opacity="1.000000" stroke="none" 
	d="
M437.048035,279.254425 
	C437.221649,279.217896 437.473267,279.436218 437.862091,279.864960 
	C437.708221,279.886658 437.417114,279.697968 437.048035,279.254425 
z"/>
<path fill="#D8AC51" opacity="1.000000" stroke="none" 
	d="
M340.735413,135.983459 
	C340.797211,136.188629 340.583099,136.459091 340.146240,136.864151 
	C340.102142,136.682083 340.280792,136.365417 340.735413,135.983459 
z"/>
<path fill="#19528B" opacity="1.000000" stroke="none" 
	d="
M473.893250,225.792038 
	C473.718689,225.908875 473.486023,225.768402 473.139954,225.433289 
	C473.340027,225.187973 473.609558,225.286652 473.893250,225.792038 
z"/>
<path fill="#D8AC51" opacity="1.000000" stroke="none" 
	d="
M339.720673,136.984222 
	C339.789093,137.195007 339.582489,137.469574 339.148712,137.871368 
	C339.096222,137.681717 339.270905,137.364853 339.720673,136.984222 
z"/>
<path fill="#19528B" opacity="1.000000" stroke="none" 
	d="
M489.984741,238.702072 
	C489.804779,238.743317 489.552246,238.523315 489.156677,238.095520 
	C489.313141,238.072083 489.612671,238.256454 489.984741,238.702072 
z"/>
<path fill="#13508A" opacity="1.000000" stroke="none" 
	d="
M225.855499,251.994858 
	C225.841827,252.289886 225.498596,252.240616 225.327988,252.219604 
	C225.135956,251.983337 225.114532,251.768097 225.077133,251.228943 
	C225.330475,251.169952 225.599823,251.434891 225.855499,251.994858 
z"/>
<path fill="#19528B" opacity="1.000000" stroke="none" 
	d="
M433.088074,274.153442 
	C433.338623,274.101196 433.539490,274.352020 433.830688,274.833801 
	C433.651398,274.842316 433.357178,274.639587 433.088074,274.153442 
z"/>
<path fill="#D8AC51" opacity="1.000000" stroke="none" 
	d="
M333.709229,142.979126 
	C333.789978,143.205978 333.594574,143.488159 333.160156,143.877258 
	C333.091766,143.667603 333.262421,143.351013 333.709229,142.979126 
z"/>
<path fill="#19528B" opacity="1.000000" stroke="none" 
	d="
M436.787720,235.262878 
	C436.889648,235.445007 436.760284,235.622879 436.471680,235.881989 
	C436.221649,235.679855 436.303009,235.444992 436.787720,235.262878 
z"/>
<path fill="#19528B" opacity="1.000000" stroke="none" 
	d="
M435.780212,237.095154 
	C435.872681,237.300156 435.676361,237.546173 435.238342,237.890076 
	C435.208496,237.741455 435.373444,237.457520 435.780212,237.095154 
z"/>
<path fill="#19528B" opacity="1.000000" stroke="none" 
	d="
M322.958313,269.768097 
	C322.863586,269.979431 322.681671,269.982544 322.226959,269.980042 
	C322.259766,269.836243 322.565430,269.698059 322.958313,269.768097 
z"/>
<path fill="#19528B" opacity="1.000000" stroke="none" 
	d="
M79.232834,272.285339 
	C79.435814,272.246582 79.614601,272.460938 79.869858,272.879333 
	C79.640114,272.994904 79.394211,272.813263 79.232834,272.285339 
z"/>
<path fill="#D8AC51" opacity="1.000000" stroke="none" 
	d="
M334.722473,141.991867 
	C334.788025,142.199127 334.582977,142.471527 334.150726,142.867065 
	C334.099640,142.679153 334.275757,142.368073 334.722473,141.991867 
z"/>
<path fill="#D8AC51" opacity="1.000000" stroke="none" 
	d="
M335.720337,140.988007 
	C335.794952,141.207184 335.595673,141.485657 335.161591,141.876999 
	C335.100006,141.675690 335.273224,141.361511 335.720337,140.988007 
z"/>
<path fill="#000000" opacity="1.000000" stroke="none" 
	d="
M289.743835,249.018616 
	C288.423676,248.766083 287.519836,248.518982 286.595856,248.266357 
	C289.515625,239.338943 307.232391,238.777222 311.083008,249.024048 
	C303.904999,249.024048 297.032593,249.024048 289.743835,249.018616 
z"/>
<path fill="#000000" opacity="1.000000" stroke="none" 
	d="
M199.599213,243.019897 
	C208.892014,251.130127 210.157135,256.741760 205.003128,265.982025 
	C202.798508,269.934540 194.437958,273.852386 190.044266,272.991852 
	C183.462891,271.702881 177.642609,265.595581 176.916763,259.868744 
	C176.004105,252.668106 178.544678,246.968201 184.403687,243.210571 
	C188.983414,240.273376 194.267471,240.619125 199.599213,243.019897 
z"/>
<path fill="#000000" opacity="1.000000" stroke="none" 
	d="
M459.646118,241.574615 
	C467.332703,239.875092 471.799255,243.835281 475.625244,249.318130 
	C478.919525,254.038971 478.226685,259.055939 476.526581,263.839539 
	C474.894836,268.430786 465.961914,273.471985 461.403076,273.063110 
	C452.714264,272.283875 449.888702,268.893280 447.334869,262.343201 
	C444.881226,256.050079 447.190765,248.795898 452.407043,244.880142 
	C454.370239,243.406403 456.968353,242.778473 459.646118,241.574615 
z"/>
</svg>